<svg width="14" height="16" viewBox="0 0 14 16" fill="none" xmlns="http://www.w3.org/2000/svg">
<path d="M10.083 0.00800697C10.0476 -0.0299928 8.77183 0.0230069 7.66167 1.18C6.55151 2.33599 6.72231 3.66199 6.7473 3.69599C6.77229 3.72999 8.33026 3.78299 9.32482 2.43799C10.3194 1.093 10.1184 0.0470068 10.083 0.00800697ZM13.5343 11.7409C13.4843 11.6449 11.1129 10.507 11.3337 8.31896C11.5545 6.12998 13.0781 5.52998 13.1021 5.46498C13.126 5.39998 12.4803 4.67498 11.7961 4.30799C11.2938 4.04924 10.7378 3.901 10.1684 3.87399C10.0559 3.87099 9.66537 3.77899 8.86243 3.98999C8.33339 4.12899 7.14096 4.57898 6.81291 4.59698C6.48382 4.61498 5.50488 4.07499 4.452 3.93199C3.7782 3.80699 3.06379 4.06299 2.55245 4.25999C2.04215 4.45598 1.07155 5.01398 0.392539 6.49697C-0.286468 7.97897 0.0686566 10.327 0.322764 11.057C0.576871 11.7859 0.973653 12.9809 1.64849 13.8529C2.24835 14.8369 3.044 15.5199 3.37621 15.7519C3.70843 15.9839 4.64571 16.1379 5.29556 15.8189C5.81835 15.5109 6.76188 15.3339 7.13471 15.3469C7.5065 15.3599 8.23966 15.5009 8.99052 15.8859C9.58518 16.0829 10.1475 16.0009 10.711 15.7809C11.2744 15.5599 12.0898 14.7219 13.0417 13.0229C13.403 12.2329 13.5676 11.8059 13.5343 11.7409Z" fill="white"/>
</svg>
