<svg width="53" height="53" viewBox="0 0 53 53" fill="none" xmlns="http://www.w3.org/2000/svg">
<path d="M26.4747 0.0874023C11.8977 0.0874023 0.0800781 11.9047 0.0800781 26.4817C0.0800781 41.0594 11.8977 52.8758 26.4747 52.8758C41.0534 52.8758 52.8697 41.0594 52.8697 26.4817C52.8697 11.9056 41.0537 0.0874023 26.4747 0.0874023ZM38.5791 38.1556C38.1064 38.931 37.0915 39.1768 36.3161 38.7009C30.1189 34.9155 22.3174 34.0582 13.1297 36.1573C12.2444 36.3591 11.3619 35.8043 11.1601 34.9187C10.9575 34.033 11.51 33.1505 12.3976 32.9487C22.452 30.6517 31.0765 31.6407 38.0339 35.8926C38.8092 36.3685 39.0551 37.3803 38.5791 38.1556ZM41.8098 30.9687C41.2141 31.937 39.9471 32.2427 38.9794 31.647C31.8846 27.2861 21.0696 26.0231 12.6778 28.5705C11.5894 28.8992 10.4399 28.2859 10.1096 27.1994C9.78183 26.1111 10.3955 24.9638 11.4819 24.6329C21.0677 21.7243 32.9846 23.1332 41.1322 28.1399C42.0998 28.7356 42.4055 30.0024 41.8098 30.9687ZM42.0872 23.485C33.5803 18.4322 19.545 17.9676 11.423 20.4327C10.1188 20.8282 8.73951 20.092 8.34426 18.7877C7.94902 17.4829 8.68467 16.1045 9.98985 15.708C19.3134 12.8777 34.8127 13.4245 44.6068 19.2388C45.7824 19.935 46.1669 21.4501 45.4704 22.6217C44.777 23.7948 43.2565 24.1815 42.0872 23.485Z" fill="#F5F5F5"/>
</svg>
