<svg width="29" height="23" viewBox="0 0 29 23" fill="none" xmlns="http://www.w3.org/2000/svg">
<path opacity="0.01" fill-rule="evenodd" clip-rule="evenodd" d="M0 1.76929V23.0001H21.2308V1.76929H0Z" fill="#1C8FF8" fill-opacity="0.338428"/>
<path fill-rule="evenodd" clip-rule="evenodd" d="M19.4615 11.0822C19.4644 12.1849 19.2067 13.2727 18.7096 14.257C17.5073 16.6626 15.0493 18.1827 12.36 18.1837C11.2573 18.1866 10.1695 17.9289 9.18524 17.4318L4.42307 19.0192L6.01046 14.257C5.51329 13.2727 5.25566 12.1849 5.25853 11.0822C5.25957 8.39292 6.77965 5.93493 9.18524 4.73266C10.1695 4.2355 11.2573 3.97786 12.36 3.98074H12.7778C16.3835 4.17966 19.2626 7.05876 19.4615 10.6645V11.0822V11.0822Z" stroke="#767676" stroke-width="1.5" stroke-linecap="round" stroke-linejoin="round"/>
<mask id="mask0_704_4921" style="mask-type:alpha" maskUnits="userSpaceOnUse" x="14" y="0" width="15" height="14">
<path fill-rule="evenodd" clip-rule="evenodd" d="M14.1538 5C14.1538 2.23858 16.3924 0 19.1538 0H23.1538C25.9153 0 28.1538 2.23858 28.1538 5V9C28.1538 11.7614 25.9153 14 23.1538 14H19.1538C16.3924 14 14.1538 11.7614 14.1538 9V5Z" fill="white"/>
</mask>
<g mask="url(#mask0_704_4921)">
<path fill-rule="evenodd" clip-rule="evenodd" d="M14.1538 0H30.1538V16H14.1538V0Z" fill="#F8A85E"/>
<path d="M21.262 10.12C20.9473 10.12 20.654 10.0667 20.382 9.96C20.1153 9.848 19.8833 9.68267 19.686 9.464C19.494 9.24533 19.358 8.97867 19.278 8.664L20.142 8.496C20.2273 8.752 20.366 8.94933 20.558 9.088C20.75 9.22667 20.9793 9.296 21.246 9.296C21.4433 9.296 21.6193 9.25867 21.774 9.184C21.9287 9.10933 22.0487 9.00533 22.134 8.872C22.2247 8.73867 22.27 8.58667 22.27 8.416C22.27 8.24533 22.2247 8.096 22.134 7.968C22.0487 7.83467 21.926 7.73333 21.766 7.664C21.6113 7.59467 21.4273 7.56 21.214 7.56H20.622V6.744H21.174C21.3713 6.744 21.542 6.712 21.686 6.648C21.8353 6.57867 21.95 6.48267 22.03 6.36C22.11 6.23733 22.15 6.096 22.15 5.936C22.15 5.78667 22.1127 5.656 22.038 5.544C21.9633 5.432 21.8593 5.344 21.726 5.28C21.598 5.216 21.446 5.184 21.27 5.184C21.03 5.184 20.8167 5.25067 20.63 5.384C20.4487 5.51733 20.3207 5.70933 20.246 5.96L19.382 5.792C19.446 5.504 19.5687 5.25333 19.75 5.04C19.9313 4.82667 20.1553 4.66133 20.422 4.544C20.6887 4.42133 20.9847 4.36 21.31 4.36C21.566 4.36 21.8007 4.39733 22.014 4.472C22.2327 4.54133 22.422 4.64267 22.582 4.776C22.742 4.90933 22.8647 5.06933 22.95 5.256C23.0407 5.43733 23.086 5.64 23.086 5.864C23.086 6.14133 23.014 6.38667 22.87 6.6C22.7313 6.81333 22.5313 6.98133 22.27 7.104C22.5633 7.21067 22.7927 7.38133 22.958 7.616C23.1287 7.85067 23.214 8.12533 23.214 8.44C23.214 8.68 23.1633 8.904 23.062 9.112C22.966 9.31467 22.83 9.49067 22.654 9.64C22.478 9.78933 22.27 9.90667 22.03 9.992C21.7953 10.0773 21.5393 10.12 21.262 10.12Z" fill="white"/>
</g>
</svg>
