<svg width="150" height="47" viewBox="0 0 150 47" fill="none" xmlns="http://www.w3.org/2000/svg">
<rect opacity="0.5" y="0.605957" width="150" height="46" rx="8" fill="#00F8FF" fill-opacity="0.2"/>
<path d="M54.5153 28.886C53.8806 28.886 53.3113 28.788 52.8073 28.592C52.3033 28.396 51.8693 28.1113 51.5053 27.738C51.1506 27.3646 50.8753 26.9213 50.6793 26.408C50.4926 25.8853 50.3993 25.302 50.3993 24.658V18.666H52.1073V24.588C52.1073 25.148 52.2053 25.6333 52.4013 26.044C52.6066 26.4453 52.8913 26.758 53.2553 26.982C53.6193 27.206 54.0486 27.318 54.5433 27.318C55.0379 27.318 55.4673 27.206 55.8313 26.982C56.1953 26.758 56.4753 26.4453 56.6713 26.044C56.8766 25.6333 56.9793 25.148 56.9793 24.588V18.666H58.6873V24.658C58.6873 25.302 58.5893 25.8853 58.3933 26.408C58.1973 26.9213 57.9126 27.3646 57.5393 27.738C57.1753 28.102 56.7366 28.3866 56.2233 28.592C55.7193 28.788 55.1499 28.886 54.5153 28.886ZM60.4207 31.378V21.284H61.8907L61.9607 22.46C62.2221 22.0306 62.5674 21.6946 62.9967 21.452C63.4261 21.2 63.9067 21.074 64.4387 21.074C64.9241 21.074 65.3721 21.172 65.7827 21.368C66.2027 21.564 66.5667 21.8346 66.8747 22.18C67.1827 22.5253 67.4207 22.9313 67.5887 23.398C67.7661 23.8646 67.8547 24.3686 67.8547 24.91C67.8547 25.4606 67.7661 25.974 67.5887 26.45C67.4114 26.926 67.1641 27.3413 66.8467 27.696C66.5294 28.0506 66.1561 28.326 65.7267 28.522C65.3067 28.718 64.8494 28.816 64.3547 28.816C63.8694 28.816 63.4261 28.7133 63.0247 28.508C62.6234 28.3026 62.2921 28.0133 62.0307 27.64V31.378H60.4207ZM64.1027 27.36C64.5041 27.36 64.8634 27.2573 65.1807 27.052C65.4981 26.8373 65.7454 26.548 65.9227 26.184C66.1094 25.82 66.2027 25.4046 66.2027 24.938C66.2027 24.4713 66.1094 24.0606 65.9227 23.706C65.7454 23.342 65.4981 23.0573 65.1807 22.852C64.8634 22.6373 64.5041 22.53 64.1027 22.53C63.7014 22.53 63.3421 22.6373 63.0247 22.852C62.7074 23.0573 62.4554 23.342 62.2687 23.706C62.0914 24.0606 62.0027 24.4713 62.0027 24.938C62.0027 25.4046 62.0914 25.82 62.2687 26.184C62.4554 26.548 62.7074 26.8373 63.0247 27.052C63.3421 27.2573 63.7014 27.36 64.1027 27.36ZM72.3868 28.466C71.9108 28.466 71.4675 28.3726 71.0568 28.186C70.6461 27.9993 70.2868 27.7426 69.9788 27.416C69.6708 27.08 69.4328 26.6926 69.2648 26.254C69.0968 25.806 69.0128 25.3206 69.0128 24.798C69.0128 24.2753 69.0968 23.79 69.2648 23.342C69.4421 22.8846 69.6895 22.488 70.0068 22.152C70.3241 21.816 70.6928 21.5546 71.1128 21.368C71.5328 21.172 71.9855 21.074 72.4708 21.074C72.9748 21.074 73.4321 21.186 73.8428 21.41C74.2628 21.6246 74.5988 21.928 74.8508 22.32L74.9068 21.284H76.3768V27.836C76.3768 28.396 76.2881 28.9046 76.1108 29.362C75.9335 29.8286 75.6815 30.2253 75.3548 30.552C75.0281 30.888 74.6361 31.1446 74.1788 31.322C73.7308 31.4993 73.2268 31.588 72.6668 31.588C71.9201 31.588 71.2668 31.42 70.7068 31.084C70.1468 30.748 69.7081 30.2813 69.3908 29.684L70.9168 29.152C71.1221 29.488 71.3788 29.74 71.6868 29.908C71.9948 30.0853 72.3401 30.174 72.7228 30.174C73.1335 30.174 73.4928 30.0806 73.8008 29.894C74.1088 29.7166 74.3468 29.46 74.5148 29.124C74.6828 28.7973 74.7668 28.41 74.7668 27.962V27.262C74.5055 27.6353 74.1695 27.9293 73.7588 28.144C73.3481 28.3586 72.8908 28.466 72.3868 28.466ZM72.7228 27.01C73.1148 27.01 73.4648 26.912 73.7728 26.716C74.0901 26.52 74.3375 26.254 74.5148 25.918C74.7015 25.582 74.7948 25.1993 74.7948 24.77C74.7948 24.3406 74.7015 23.958 74.5148 23.622C74.3375 23.286 74.0901 23.02 73.7728 22.824C73.4648 22.628 73.1148 22.53 72.7228 22.53C72.3308 22.53 71.9808 22.628 71.6728 22.824C71.3648 23.02 71.1175 23.286 70.9308 23.622C70.7535 23.958 70.6648 24.3406 70.6648 24.77C70.6648 25.1993 70.7535 25.582 70.9308 25.918C71.1175 26.254 71.3648 26.52 71.6728 26.716C71.9808 26.912 72.3308 27.01 72.7228 27.01ZM78.1121 28.606V21.284H79.5821L79.6521 22.488C79.8388 22.0773 80.0955 21.76 80.4221 21.536C80.7581 21.3026 81.1501 21.186 81.5981 21.186C81.7381 21.186 81.8735 21.1953 82.0041 21.214C82.1348 21.2326 82.2515 21.2653 82.3541 21.312L82.1721 22.88C82.0695 22.8426 81.9621 22.8193 81.8501 22.81C81.7381 22.7913 81.6261 22.782 81.5141 22.782C80.9541 22.782 80.5155 22.9686 80.1981 23.342C79.8808 23.7153 79.7221 24.2333 79.7221 24.896V28.606H78.1121ZM85.6021 28.816C85.2288 28.816 84.8835 28.76 84.5661 28.648C84.2581 28.536 83.9875 28.3773 83.7541 28.172C83.5208 27.9666 83.3388 27.724 83.2081 27.444C83.0775 27.164 83.0121 26.856 83.0121 26.52C83.0121 26.0533 83.1335 25.6473 83.3761 25.302C83.6281 24.9473 83.9781 24.672 84.4261 24.476C84.8741 24.28 85.3968 24.182 85.9941 24.182C86.3208 24.182 86.6335 24.2146 86.9321 24.28C87.2308 24.336 87.5155 24.42 87.7861 24.532V24.07C87.7861 23.7433 87.7255 23.4586 87.6041 23.216C87.4828 22.964 87.3101 22.768 87.0861 22.628C86.8621 22.488 86.5915 22.418 86.2741 22.418C85.9381 22.418 85.6348 22.5066 85.3641 22.684C85.0935 22.8613 84.8928 23.1086 84.7621 23.426L83.2781 23.09C83.3901 22.6793 83.5908 22.3246 83.8801 22.026C84.1788 21.7273 84.5335 21.494 84.9441 21.326C85.3641 21.158 85.8168 21.074 86.3021 21.074C86.7595 21.074 87.1748 21.1486 87.5481 21.298C87.9308 21.4473 88.2575 21.6573 88.5281 21.928C88.7988 22.1986 89.0088 22.5206 89.1581 22.894C89.3075 23.2673 89.3821 23.6826 89.3821 24.14V28.606H87.9121L87.8561 27.64C87.6601 27.9946 87.3661 28.2793 86.9741 28.494C86.5821 28.7086 86.1248 28.816 85.6021 28.816ZM84.6361 26.45C84.6361 26.6553 84.6921 26.842 84.8041 27.01C84.9161 27.1686 85.0701 27.2946 85.2661 27.388C85.4715 27.4813 85.7095 27.528 85.9801 27.528C86.3255 27.528 86.6335 27.4533 86.9041 27.304C87.1748 27.1546 87.3895 26.954 87.5481 26.702C87.7068 26.4406 87.7861 26.1466 87.7861 25.82V25.652C87.5435 25.5493 87.2915 25.47 87.0301 25.414C86.7781 25.3486 86.5168 25.316 86.2461 25.316C85.7608 25.316 85.3688 25.4186 85.0701 25.624C84.7808 25.8293 84.6361 26.1046 84.6361 26.45ZM94.2081 28.816C93.7228 28.816 93.2701 28.718 92.8501 28.522C92.4394 28.326 92.0801 28.0553 91.7721 27.71C91.4641 27.3646 91.2214 26.9586 91.0441 26.492C90.8761 26.0253 90.7921 25.5213 90.7921 24.98C90.7921 24.4293 90.8808 23.916 91.0581 23.44C91.2354 22.964 91.4828 22.5486 91.8001 22.194C92.1174 21.8393 92.4861 21.564 92.9061 21.368C93.3354 21.172 93.7974 21.074 94.2921 21.074C94.7774 21.074 95.2208 21.1766 95.6221 21.382C96.0234 21.5873 96.3548 21.8766 96.6161 22.25V18.19H98.2261V28.606H96.7561L96.6861 27.43C96.4248 27.8593 96.0794 28.2 95.6501 28.452C95.2208 28.6946 94.7401 28.816 94.2081 28.816ZM94.5441 27.36C94.9454 27.36 95.3048 27.2573 95.6221 27.052C95.9394 26.8373 96.1868 26.548 96.3641 26.184C96.5508 25.82 96.6441 25.4093 96.6441 24.952C96.6441 24.4853 96.5508 24.07 96.3641 23.706C96.1868 23.342 95.9394 23.0573 95.6221 22.852C95.3048 22.6373 94.9454 22.53 94.5441 22.53C94.1428 22.53 93.7834 22.6373 93.4661 22.852C93.1488 23.0573 92.8968 23.342 92.7101 23.706C92.5328 24.07 92.4441 24.4853 92.4441 24.952C92.4441 25.4093 92.5328 25.82 92.7101 26.184C92.8968 26.548 93.1488 26.8373 93.4661 27.052C93.7834 27.2573 94.1428 27.36 94.5441 27.36ZM103.362 28.816C102.82 28.816 102.321 28.7226 101.864 28.536C101.416 28.34 101.024 28.0693 100.688 27.724C100.352 27.3786 100.09 26.9726 99.9038 26.506C99.7265 26.03 99.6378 25.5073 99.6378 24.938C99.6378 24.3873 99.7265 23.8786 99.9038 23.412C100.09 22.9453 100.342 22.5393 100.66 22.194C100.986 21.8393 101.369 21.564 101.808 21.368C102.246 21.172 102.722 21.074 103.236 21.074C103.749 21.074 104.216 21.1673 104.636 21.354C105.065 21.5313 105.434 21.788 105.742 22.124C106.059 22.46 106.302 22.8613 106.47 23.328C106.638 23.7853 106.722 24.294 106.722 24.854V25.33H101.304C101.35 25.7593 101.462 26.1326 101.64 26.45C101.826 26.758 102.064 26.996 102.354 27.164C102.643 27.332 102.979 27.416 103.362 27.416C104.127 27.416 104.724 27.0753 105.154 26.394L106.568 26.94C106.4 27.3226 106.152 27.6586 105.826 27.948C105.508 28.228 105.135 28.4426 104.706 28.592C104.286 28.7413 103.838 28.816 103.362 28.816ZM103.236 22.376C102.909 22.376 102.615 22.4506 102.354 22.6C102.102 22.7493 101.887 22.9593 101.71 23.23C101.532 23.5006 101.411 23.818 101.346 24.182H105.042C104.986 23.818 104.878 23.5006 104.72 23.23C104.561 22.9593 104.351 22.7493 104.09 22.6C103.838 22.4506 103.553 22.376 103.236 22.376ZM111.187 28.606V18.666H114.197C114.99 18.666 115.667 18.7966 116.227 19.058C116.796 19.3193 117.23 19.6926 117.529 20.178C117.837 20.6633 117.991 21.2513 117.991 21.942C117.991 22.5953 117.832 23.1693 117.515 23.664C117.198 24.1493 116.75 24.5273 116.171 24.798C115.592 25.0593 114.911 25.19 114.127 25.19C113.94 25.19 113.74 25.1806 113.525 25.162C113.32 25.1433 113.1 25.12 112.867 25.092V28.606H111.187ZM112.867 20.15V23.608C113.072 23.636 113.278 23.6593 113.483 23.678C113.688 23.6966 113.88 23.706 114.057 23.706C114.766 23.706 115.308 23.552 115.681 23.244C116.064 22.936 116.255 22.4973 116.255 21.928C116.255 21.368 116.073 20.934 115.709 20.626C115.345 20.3086 114.832 20.15 114.169 20.15H112.867ZM119.292 28.606V21.284H120.762L120.832 22.488C121.018 22.0773 121.275 21.76 121.602 21.536C121.938 21.3026 122.33 21.186 122.778 21.186C122.918 21.186 123.053 21.1953 123.184 21.214C123.314 21.2326 123.431 21.2653 123.534 21.312L123.352 22.88C123.249 22.8426 123.142 22.8193 123.03 22.81C122.918 22.7913 122.806 22.782 122.694 22.782C122.134 22.782 121.695 22.9686 121.378 23.342C121.06 23.7153 120.902 24.2333 120.902 24.896V28.606H119.292ZM127.903 28.816C127.371 28.816 126.876 28.7226 126.419 28.536C125.971 28.34 125.579 28.0693 125.243 27.724C124.907 27.3693 124.645 26.9586 124.459 26.492C124.272 26.016 124.179 25.498 124.179 24.938C124.179 24.3873 124.272 23.8786 124.459 23.412C124.645 22.936 124.907 22.5253 125.243 22.18C125.588 21.8253 125.989 21.5546 126.447 21.368C126.913 21.172 127.417 21.074 127.959 21.074C128.491 21.074 128.981 21.172 129.429 21.368C129.886 21.5546 130.283 21.8253 130.619 22.18C130.955 22.5253 131.216 22.9313 131.403 23.398C131.589 23.8646 131.683 24.378 131.683 24.938C131.683 25.498 131.589 26.016 131.403 26.492C131.216 26.9586 130.95 27.3693 130.605 27.724C130.269 28.0693 129.867 28.34 129.401 28.536C128.943 28.7226 128.444 28.816 127.903 28.816ZM127.931 27.36C128.332 27.36 128.691 27.2573 129.009 27.052C129.326 26.8373 129.573 26.548 129.751 26.184C129.937 25.82 130.031 25.4046 130.031 24.938C130.031 24.4713 129.937 24.0606 129.751 23.706C129.573 23.342 129.326 23.0573 129.009 22.852C128.691 22.6373 128.332 22.53 127.931 22.53C127.529 22.53 127.17 22.6373 126.853 22.852C126.535 23.0573 126.283 23.342 126.097 23.706C125.919 24.0606 125.831 24.4713 125.831 24.938C125.831 25.4046 125.919 25.82 126.097 26.184C126.283 26.548 126.535 26.8373 126.853 27.052C127.17 27.2573 127.529 27.36 127.931 27.36Z" fill="#00F8FF"/>
<path opacity="0.3" d="M37.4853 31.2112H18.5222C17.9404 31.2112 17.4688 31.6828 17.4688 32.2647V32.2647C17.4688 32.8465 17.9404 33.3182 18.5222 33.3182H37.4853C38.0671 33.3182 38.5387 32.8465 38.5387 32.2647C38.5387 31.6828 38.0671 31.2112 37.4853 31.2112Z" fill="#00F8FF"/>
<path d="M23.3139 18.9295C22.9814 19.3284 22.4078 19.4256 21.9625 19.1585L19.0643 17.4195C18.3621 16.9982 17.4688 17.504 17.4688 18.3229V28.0507C17.4688 28.6325 17.9404 29.1041 18.5222 29.1041H37.4852C38.0671 29.1041 38.5387 28.6325 38.5387 28.0507V18.3229C38.5387 17.504 37.6454 16.9982 36.9432 17.4195L34.0449 19.1585C33.5996 19.4256 33.0261 19.3284 32.6936 18.9295L28.813 14.2729C28.3918 13.7674 27.6156 13.7674 27.1944 14.2729L23.3139 18.9295Z" fill="#00F8FF"/>
</svg>
