<svg width="23" height="23" viewBox="0 0 23 23" fill="none" xmlns="http://www.w3.org/2000/svg">
<path fill-rule="evenodd" clip-rule="evenodd" d="M15.7271 2.65334L15.728 3.37173C18.3679 3.57863 20.1117 5.37748 20.1146 8.13609L20.125 16.2108C20.1288 19.2185 18.2392 21.069 15.2105 21.0738L7.81222 21.0834C4.80239 21.0872 2.8892 19.1926 2.88541 16.1763L2.87501 8.19644C2.87122 5.41962 4.55355 3.62556 7.19341 3.38322L7.19247 2.66483C7.19152 2.24338 7.50376 1.92633 7.92009 1.92633C8.33641 1.92537 8.64865 2.24146 8.6496 2.66292L8.65055 3.33342L14.2709 3.32575L14.27 2.65526C14.269 2.2338 14.5813 1.91771 14.9976 1.91675C15.4044 1.91579 15.7261 2.23188 15.7271 2.65334ZM4.3331 8.49236L18.6584 8.4732V8.13795C18.6177 6.07857 17.5845 4.99811 15.7299 4.83719L15.7309 5.57474C15.7309 5.98661 15.4101 6.31324 15.0033 6.31324C14.587 6.3142 14.2738 5.98853 14.2738 5.57665L14.2728 4.80079L8.65245 4.80845L8.6534 5.58336C8.6534 5.99619 8.3421 6.32186 7.92578 6.32186C7.50946 6.32282 7.19627 5.99811 7.19627 5.58527L7.19532 4.84772C5.35025 5.03259 4.32931 6.11688 4.33215 8.19446L4.3331 8.49236ZM14.605 12.8458V12.8563C14.6144 13.2969 14.974 13.6312 15.4102 13.6216C15.836 13.6111 16.1757 13.2462 16.1662 12.8055C16.1463 12.3841 15.8048 12.0402 15.3799 12.0412C14.9447 12.0508 14.604 12.4052 14.605 12.8458ZM15.3864 17.1465C14.9512 17.137 14.6002 16.7739 14.5992 16.3333C14.5897 15.8927 14.9389 15.5278 15.3741 15.5172H15.3836C15.8283 15.5172 16.1888 15.8803 16.1888 16.3305C16.1897 16.7806 15.8302 17.1456 15.3864 17.1465ZM10.7066 12.8612C10.7255 13.3018 11.086 13.6457 11.5213 13.6265C11.9471 13.6064 12.2867 13.2424 12.2678 12.8018C12.2574 12.3708 11.9073 12.0355 11.4815 12.0365C11.0463 12.0557 10.7057 12.4206 10.7066 12.8612ZM11.5251 17.1035C11.0899 17.1227 10.7303 16.7788 10.7105 16.3382C10.7105 15.8976 11.0501 15.5336 11.4854 15.5135C11.9112 15.5125 12.2622 15.8478 12.2717 16.2779C12.2916 16.7194 11.9509 17.0834 11.5251 17.1035ZM6.80835 12.8947C6.82727 13.3353 7.18777 13.6801 7.62302 13.66C8.0488 13.6408 8.38849 13.2759 8.36862 12.8353C8.35915 12.4042 8.00906 12.069 7.58233 12.07C7.14709 12.0891 6.8074 12.4541 6.80835 12.8947ZM7.62676 17.1082C7.19152 17.1283 6.83196 16.7835 6.81209 16.3429C6.81115 15.9023 7.15178 15.5373 7.58702 15.5182C8.01281 15.5172 8.36384 15.8525 8.37331 16.2835C8.39318 16.7241 8.05349 17.089 7.62676 17.1082Z" fill="#9D9898"/>
</svg>
