<svg width="23" height="23" viewBox="0 0 23 23" fill="none" xmlns="http://www.w3.org/2000/svg">
<path fill-rule="evenodd" clip-rule="evenodd" d="M11.5287 1.91677C13.6945 1.92635 15.7645 2.78885 17.2787 4.30302C18.8025 5.82677 19.6554 7.88718 19.6458 10.0243V10.0722C19.5883 12.9759 17.9591 15.6497 15.9275 17.7388C14.7775 18.9176 13.5029 19.9622 12.1133 20.8438C11.7395 21.1601 11.1933 21.1601 10.8195 20.8438C8.75913 19.5022 6.93829 17.8155 5.46246 15.8509C4.16871 14.1451 3.43079 12.0943 3.35413 9.95718C3.37329 5.50093 7.03413 1.90718 11.5287 1.91677ZM11.5287 12.7076C12.2091 12.7076 12.8608 12.4488 13.34 11.9793C13.8383 11.4905 14.1172 10.8398 14.1172 10.1584C14.1172 8.7401 12.9566 7.59968 11.5287 7.59968C10.1008 7.59968 8.95079 8.7401 8.95079 10.1584C8.95079 11.5586 10.0816 12.6884 11.5 12.7076H11.5287Z" fill="#9D9898"/>
</svg>
